<svg width="117" height="25" viewBox="0 0 117 25" fill="none" xmlns="http://www.w3.org/2000/svg">
<path fill-rule="evenodd" clip-rule="evenodd" d="M116.59 18.9442H107.787V5.08259H117V7.2545H110.099V10.6268H116.654V12.7925H110.099V16.7616H117V18.9432H116.59V18.9442ZM100.514 11.0566H105.484V18.1575L105.188 18.25C104.824 18.3634 104.456 18.4633 104.085 18.5499C103.728 18.6334 103.354 18.7052 102.963 18.7654C102.577 18.8243 102.167 18.8685 101.733 18.8982C101.295 18.9278 100.836 18.9432 100.357 18.9432C99.384 18.9585 98.4162 18.7986 97.5036 18.472C96.6698 18.1631 95.9217 17.6721 95.3181 17.0376C94.6993 16.3807 94.2348 15.6025 93.956 14.7572C93.6452 13.7955 93.4942 12.7926 93.5088 11.7856C93.5052 11.1096 93.5798 10.4354 93.7318 9.77543C93.873 9.16013 94.097 8.56524 94.3981 8.00615C94.6858 7.4702 95.0549 6.97873 95.4934 6.54798C95.932 6.1222 96.4352 5.76243 96.9853 5.48121C97.5571 5.1889 98.1672 4.97159 98.799 4.83507C99.4786 4.68924 100.173 4.61713 100.869 4.62066C101.59 4.61889 102.31 4.68635 103.018 4.82206C103.706 4.95489 104.377 5.15774 105.021 5.42724L105.415 5.59203L105.244 5.97572L104.642 7.32356L104.473 7.69939L104.09 7.53974C103.541 7.30846 102.97 7.12698 102.385 6.99752C101.855 6.88124 101.313 6.82182 100.77 6.82037C100.079 6.80816 99.392 6.91947 98.7435 7.14866C98.1794 7.356 97.6724 7.68606 97.2621 8.11296C96.8388 8.55929 96.5198 9.08818 96.327 9.66381C96.1035 10.3503 95.9955 11.0669 96.0077 11.7864C95.9932 12.5341 96.0974 13.2796 96.3167 13.9967C96.4927 14.5667 96.7985 15.0916 97.2118 15.5331C97.6168 15.9494 98.1194 16.266 98.6775 16.4565C99.3561 16.6804 100.07 16.7878 100.788 16.7738C101.558 16.775 102.326 16.6985 103.08 16.5458V13.2518H100.089V11.0558H100.513L100.514 11.0566ZM89.8216 11.9014C89.8354 11.1508 89.7353 10.4025 89.5247 9.68388C89.3554 9.11502 89.0611 8.59466 88.6647 8.16343C88.2658 7.74597 87.7765 7.43258 87.2378 7.24895C86.5674 7.02503 85.8658 6.91793 85.1615 6.93203H83.374V17.016H84.8027C85.5626 17.0313 86.32 16.9205 87.0461 16.6877C88.2184 16.3223 89.1391 15.3793 89.5044 14.1702C89.7285 13.4363 89.8352 12.6696 89.8208 11.9001L89.8216 11.9014ZM92.1248 11.8875C92.1414 12.9008 91.9871 13.9098 91.6684 14.872C91.3838 15.7175 90.9074 16.4859 90.2762 17.1176C89.6385 17.7413 88.8666 18.2117 88.0192 18.4931C87.055 18.8074 86.0452 18.9596 85.0308 18.943H81.0709V5.08363H85.4068C86.3578 5.06847 87.3042 5.21922 88.2033 5.52917C89.0113 5.81567 89.7437 6.28163 90.3451 6.8918C90.9466 7.50803 91.4037 8.2498 91.6835 9.06368C91.9895 9.97295 92.1387 10.9275 92.1241 11.8867L92.1248 11.8875ZM77.8997 18.9442H69.0945V5.08259H78.3069V7.2545H71.4058V10.6268H77.9616V12.7925H71.4058V16.7616H78.3071V18.9432H77.8989L77.8997 18.9442ZM63.1782 18.9442H63.5938V7.2545H68.1732V5.08259H56.6575V7.2545H61.2339V18.9434H63.1777L63.1782 18.9442ZM48.8279 18.5317V5.08259H51.1266V16.7446H57.5787V18.9442H48.8268V18.5301L48.8279 18.5317ZM42.8386 12.9375L41.4482 8.96341C41.3749 8.7624 41.3027 8.54698 41.2293 8.31696C41.1658 8.52618 41.0976 8.73796 41.0273 8.95265L41.0233 8.95976L39.6142 12.9375H42.8386ZM43.785 14.8156H39.0745L37.5589 18.6801L37.4545 18.9442H35.0079L40.4363 5.3456L40.5419 5.08259H42.3983L42.5015 5.3456L47.9055 18.9442H45.4236L43.785 14.8156ZM15.2008 11.0756V7.85491L1.84444 12.9508L1.84252 16.1719L15.2001 11.0749L15.2008 11.0756ZM17.0433 4.17041L0.00112281 10.6272L0 6.45665L17.0431 0L17.0433 4.17041ZM17.0428 17.5691L0 24.0268V19.8568L17.0433 13.3996L17.0428 17.5691ZM34.5467 14.8544C34.5559 15.4444 34.4397 16.0297 34.2063 16.5695C33.9739 17.0861 33.6219 17.5373 33.1807 17.8843C32.7156 18.2515 32.1854 18.5232 31.6192 18.6848C30.9783 18.8647 30.3159 18.9519 29.6514 18.9437C28.9643 18.9501 28.2781 18.8973 27.5998 18.786C27.0546 18.7002 26.524 18.5359 26.0239 18.2979L25.7953 18.1842V15.8273L26.3509 16.0714C26.6043 16.1821 26.863 16.2791 27.1261 16.3623C27.3953 16.4484 27.677 16.5231 27.9709 16.5862C28.2578 16.6482 28.5475 16.6952 28.839 16.727C29.1262 16.7577 29.4148 16.773 29.7034 16.7728C30.1044 16.7792 30.5047 16.7349 30.8948 16.6408C31.1765 16.5745 31.4423 16.4513 31.6761 16.2781C31.8625 16.1373 32.0124 15.9521 32.113 15.739C32.2149 15.5063 32.2648 15.2533 32.2588 14.9985C32.2609 14.8231 32.2424 14.6482 32.2039 14.4773C32.1749 14.3442 32.1251 14.2168 32.0563 14.0999H32.0581C31.9801 13.9793 31.8864 13.8699 31.7797 13.7753C31.6361 13.6483 31.481 13.5357 31.3166 13.4387L31.3155 13.4398C31.0751 13.3009 30.827 13.1762 30.5728 13.0661C30.271 12.9325 29.9142 12.79 29.502 12.6379L29.5011 12.6363C28.9511 12.4388 28.4209 12.1877 27.918 11.8866C27.5046 11.6422 27.1324 11.3314 26.8157 10.966C26.5257 10.6219 26.306 10.2221 26.1692 9.79009C26.0236 9.32466 25.9521 8.8382 25.9576 8.34964C25.9497 7.81965 26.0568 7.29432 26.2709 6.81155C26.4876 6.34226 26.8086 5.93096 27.2084 5.61072V5.60895C27.6261 5.27088 28.1037 5.01825 28.6151 4.86488C29.1821 4.6964 29.7703 4.61417 30.3607 4.62092C30.9942 4.61883 31.6262 4.68195 32.2473 4.80899C32.845 4.93233 33.4276 5.12264 33.9845 5.37656L34.3276 5.53282L34.2013 5.89675L33.7437 7.22317L33.6027 7.6364L33.2127 7.46745C32.7383 7.25851 32.2454 7.09533 31.7411 6.98034C31.276 6.87482 30.8011 6.82118 30.3247 6.82038C30.0098 6.81476 29.6957 6.85266 29.3907 6.93312C29.157 6.99544 28.9374 7.10368 28.7442 7.2516C28.5842 7.37526 28.4556 7.53667 28.3696 7.72184C28.2829 7.92533 28.2405 8.14552 28.2455 8.36731C28.2435 8.54542 28.2602 8.72304 28.295 8.8973V8.89923C28.3213 9.03172 28.3674 9.15924 28.4318 9.27745C28.5009 9.3971 28.5864 9.50615 28.6858 9.60138C28.8154 9.72617 28.9575 9.83651 29.1099 9.93078C29.329 10.0641 29.5562 10.1828 29.79 10.2865C30.0794 10.4181 30.414 10.5549 30.7939 10.697V10.6957C31.3944 10.9101 31.9765 11.175 32.5337 11.488C32.9636 11.7217 33.354 12.0242 33.6901 12.3838C33.9761 12.707 34.1956 13.0853 34.3358 13.4965C34.4805 13.9341 34.5518 14.3935 34.5464 14.8552L34.5467 14.8544Z" fill="#051539"/>
</svg>
